<svg width="30" height="21" viewBox="0 0 30 21" fill="none" xmlns="http://www.w3.org/2000/svg">
<path d="M22.0605 3.22656H22.9395C23.0176 3.22656 23.0566 3.26562 23.0566 3.34375V13.6562C23.0566 13.7344 23.0176 13.7734 22.9395 13.7734H22.0605C21.9824 13.7734 21.9434 13.7344 21.9434 13.6562V3.34375C21.9434 3.26562 21.9824 3.22656 22.0605 3.22656Z" fill="black"/>
<path d="M17.5781 7.94336H27.4219C27.5 7.94336 27.5391 7.98242 27.5391 8.06055V8.93945C27.5391 9.01758 27.5 9.05664 27.4219 9.05664H17.5781C17.5 9.05664 17.4609 9.01758 17.4609 8.93945V8.06055C17.4609 7.98242 17.5 7.94336 17.5781 7.94336Z" fill="black"/>
<circle cx="10.466" cy="5.58185" r="4.58185" stroke="black" stroke-width="2"/>
<path d="M1.0895 18.7538C1.06566 18.7492 1.04279 18.7446 1.02089 18.7401C1.17217 16.5981 2.13544 15.2285 3.58913 14.3348C5.25235 13.3123 7.65014 12.8615 10.466 12.8615C13.2818 12.8615 15.6796 13.3123 17.3428 14.3348C18.7965 15.2285 19.7598 16.5981 19.9111 18.7401C19.8892 18.7446 19.8663 18.7492 19.8424 18.7538C19.3279 18.8534 18.5563 18.9424 17.5863 19.0154C15.6578 19.1606 13.0684 19.2342 10.466 19.2342C7.86358 19.2342 5.27414 19.1606 3.3457 19.0154C2.37564 18.9424 1.60402 18.8534 1.0895 18.7538ZM20.3181 18.6296C20.3182 18.6296 20.3164 18.6305 20.3123 18.6323C20.3159 18.6305 20.318 18.6296 20.3181 18.6296ZM0.619643 18.6323C0.615613 18.6306 0.613776 18.6296 0.613865 18.6296C0.613954 18.6296 0.61597 18.6304 0.619643 18.6323Z" stroke="black" stroke-width="2"/>
</svg>
